<mxfile host="app.diagrams.net" modified="2023-06-08T12:32:49.058Z" agent="Mozilla/5.0 (X11; Ubuntu; Linux x86_64; rv:109.0) Gecko/20100101 Firefox/113.0" etag="TRJklK3m_ocYcrJzV--M" version="21.3.6" type="device">
  <diagram name="Page-1" id="ZWGo5u5tf92niH1HUbpD">
    <mxGraphModel dx="2097" dy="1753" grid="1" gridSize="10" guides="1" tooltips="1" connect="1" arrows="1" fold="1" page="1" pageScale="1" pageWidth="850" pageHeight="1100" math="1" shadow="0">
      <root>
        <mxCell id="0" />
        <mxCell id="1" parent="0" />
        <mxCell id="Y7K8qSKGwcGmJ65DNatQ-1" value="" style="rounded=0;whiteSpace=wrap;html=1;fillColor=#fff2cc;strokeColor=#d6b656;" parent="1" vertex="1">
          <mxGeometry x="10" y="40" width="840" height="70" as="geometry" />
        </mxCell>
        <mxCell id="Ph-aHH_Kv8CWVcv1lU_c-54" value="" style="rounded=0;whiteSpace=wrap;html=1;movable=1;resizable=1;rotatable=1;deletable=1;editable=1;locked=0;connectable=1;fillColor=#dae8fc;strokeColor=#6c8ebf;" vertex="1" parent="1">
          <mxGeometry x="121.75" y="50" width="30" height="50" as="geometry" />
        </mxCell>
        <mxCell id="Y7K8qSKGwcGmJ65DNatQ-58" value="" style="rounded=0;whiteSpace=wrap;html=1;fillColor=#fff2cc;strokeColor=#d6b656;" parent="1" vertex="1">
          <mxGeometry x="120" y="257.5" width="150" height="42.5" as="geometry" />
        </mxCell>
        <mxCell id="Y7K8qSKGwcGmJ65DNatQ-59" value="&lt;div style=&quot;font-size: 14px;&quot;&gt;&lt;font style=&quot;font-size: 14px;&quot; color=&quot;#000000&quot;&gt;$$array\, with \,panels$$&lt;/font&gt;&lt;/div&gt;" style="text;html=1;align=center;verticalAlign=middle;resizable=0;points=[];autosize=1;strokeColor=none;fillColor=none;fontColor=#0066CC;fontSize=14;" parent="1" vertex="1">
          <mxGeometry x="105" y="310" width="180" height="30" as="geometry" />
        </mxCell>
        <mxCell id="Y7K8qSKGwcGmJ65DNatQ-47" value="&lt;div&gt;$$x_2$$&lt;/div&gt;" style="text;html=1;align=center;verticalAlign=middle;resizable=0;points=[];autosize=1;strokeColor=none;fillColor=none;" parent="1" vertex="1">
          <mxGeometry x="101.75" y="60" width="70" height="30" as="geometry" />
        </mxCell>
        <mxCell id="Y7K8qSKGwcGmJ65DNatQ-151" value="&lt;div style=&quot;font-size: 14px;&quot;&gt;&lt;font style=&quot;font-size: 14px;&quot; color=&quot;#000000&quot;&gt;$$pressure$$&lt;/font&gt;&lt;/div&gt;" style="text;html=1;align=center;verticalAlign=middle;resizable=0;points=[];autosize=1;strokeColor=none;fillColor=none;fontColor=#0066CC;fontSize=14;" parent="1" vertex="1">
          <mxGeometry x="305" y="580" width="110" height="30" as="geometry" />
        </mxCell>
        <mxCell id="Y7K8qSKGwcGmJ65DNatQ-153" value="" style="rounded=0;whiteSpace=wrap;html=1;fillColor=#fff2cc;strokeColor=#d6b656;" parent="1" vertex="1">
          <mxGeometry x="120" y="529" width="150" height="42.5" as="geometry" />
        </mxCell>
        <mxCell id="Y7K8qSKGwcGmJ65DNatQ-154" value="&lt;div style=&quot;font-size: 14px;&quot;&gt;&lt;font style=&quot;font-size: 14px;&quot; color=&quot;#000000&quot;&gt;$$array\, with \,pressures$$&lt;/font&gt;&lt;/div&gt;" style="text;html=1;align=center;verticalAlign=middle;resizable=0;points=[];autosize=1;strokeColor=none;fillColor=none;fontColor=#0066CC;fontSize=14;" parent="1" vertex="1">
          <mxGeometry x="95" y="580" width="200" height="30" as="geometry" />
        </mxCell>
        <mxCell id="Y7K8qSKGwcGmJ65DNatQ-170" value="$$p_i$$" style="rounded=0;whiteSpace=wrap;html=1;movable=1;resizable=1;rotatable=1;deletable=1;editable=1;locked=0;connectable=1;fillColor=#e1d5e7;strokeColor=#9673a6;" parent="1" vertex="1">
          <mxGeometry x="332.5" y="529" width="40" height="41.5" as="geometry" />
        </mxCell>
        <mxCell id="Y7K8qSKGwcGmJ65DNatQ-172" value="$$M = N_{spanwise} *N_{chordwise}*2 * K$$" style="text;html=1;align=center;verticalAlign=middle;resizable=0;points=[];autosize=1;strokeColor=none;fillColor=none;fontColor=#33001A;fontSize=14;" parent="1" vertex="1">
          <mxGeometry x="453" y="520" width="300" height="30" as="geometry" />
        </mxCell>
        <mxCell id="Ph-aHH_Kv8CWVcv1lU_c-44" value="" style="rounded=0;whiteSpace=wrap;html=1;movable=1;resizable=1;rotatable=1;deletable=1;editable=1;locked=0;connectable=1;fillColor=#d0cee2;strokeColor=#56517e;" vertex="1" parent="1">
          <mxGeometry x="798" y="50" width="30" height="50" as="geometry" />
        </mxCell>
        <mxCell id="Ph-aHH_Kv8CWVcv1lU_c-45" value="" style="rounded=0;whiteSpace=wrap;html=1;movable=1;resizable=1;rotatable=1;deletable=1;editable=1;locked=0;connectable=1;fillColor=#dae8fc;strokeColor=#6c8ebf;" vertex="1" parent="1">
          <mxGeometry x="23" y="50" width="30" height="50" as="geometry" />
        </mxCell>
        <mxCell id="Ph-aHH_Kv8CWVcv1lU_c-46" value="" style="shape=curlyBracket;whiteSpace=wrap;html=1;rounded=1;flipH=1;labelPosition=right;verticalLabelPosition=middle;align=left;verticalAlign=middle;size=0.5;rotation=90;fontStyle=1" vertex="1" parent="1">
          <mxGeometry x="201.13" y="-60.62" width="30" height="401.25" as="geometry" />
        </mxCell>
        <mxCell id="Ph-aHH_Kv8CWVcv1lU_c-49" value="&lt;div style=&quot;font-size: 14px;&quot;&gt;$$panel\,1$$&lt;/div&gt;" style="text;html=1;align=center;verticalAlign=middle;resizable=0;points=[];autosize=1;strokeColor=none;fillColor=none;fontColor=#000000;fontSize=14;" vertex="1" parent="1">
          <mxGeometry x="166.13" y="160" width="100" height="30" as="geometry" />
        </mxCell>
        <mxCell id="Ph-aHH_Kv8CWVcv1lU_c-51" value="&lt;div style=&quot;font-size: 14px;&quot;&gt;$$panel\,2$$&lt;/div&gt;" style="text;html=1;align=center;verticalAlign=middle;resizable=0;points=[];autosize=1;strokeColor=none;fillColor=none;fontColor=#000000;fontSize=14;" vertex="1" parent="1">
          <mxGeometry x="579.6899999999999" y="160" width="100" height="30" as="geometry" />
        </mxCell>
        <mxCell id="Ph-aHH_Kv8CWVcv1lU_c-52" value="" style="rounded=0;whiteSpace=wrap;html=1;movable=1;resizable=1;rotatable=1;deletable=1;editable=1;locked=0;connectable=1;fillColor=#b0e3e6;strokeColor=#0e8088;" vertex="1" parent="1">
          <mxGeometry x="53" y="50" width="30" height="50" as="geometry" />
        </mxCell>
        <mxCell id="Ph-aHH_Kv8CWVcv1lU_c-53" value="" style="rounded=0;whiteSpace=wrap;html=1;movable=1;resizable=1;rotatable=1;deletable=1;editable=1;locked=0;connectable=1;fillColor=#d0cee2;strokeColor=#56517e;" vertex="1" parent="1">
          <mxGeometry x="83" y="50" width="30" height="50" as="geometry" />
        </mxCell>
        <mxCell id="Ph-aHH_Kv8CWVcv1lU_c-55" value="" style="rounded=0;whiteSpace=wrap;html=1;movable=1;resizable=1;rotatable=1;deletable=1;editable=1;locked=0;connectable=1;fillColor=#b0e3e6;strokeColor=#0e8088;" vertex="1" parent="1">
          <mxGeometry x="151.75" y="50" width="30" height="50" as="geometry" />
        </mxCell>
        <mxCell id="Ph-aHH_Kv8CWVcv1lU_c-56" value="" style="rounded=0;whiteSpace=wrap;html=1;movable=1;resizable=1;rotatable=1;deletable=1;editable=1;locked=0;connectable=1;fillColor=#d0cee2;strokeColor=#56517e;" vertex="1" parent="1">
          <mxGeometry x="181.75" y="50" width="30" height="50" as="geometry" />
        </mxCell>
        <mxCell id="Ph-aHH_Kv8CWVcv1lU_c-57" value="" style="rounded=0;whiteSpace=wrap;html=1;movable=1;resizable=1;rotatable=1;deletable=1;editable=1;locked=0;connectable=1;fillColor=#dae8fc;strokeColor=#6c8ebf;" vertex="1" parent="1">
          <mxGeometry x="223" y="50" width="30" height="50" as="geometry" />
        </mxCell>
        <mxCell id="Ph-aHH_Kv8CWVcv1lU_c-58" value="" style="rounded=0;whiteSpace=wrap;html=1;movable=1;resizable=1;rotatable=1;deletable=1;editable=1;locked=0;connectable=1;fillColor=#b0e3e6;strokeColor=#0e8088;" vertex="1" parent="1">
          <mxGeometry x="253" y="50" width="30" height="50" as="geometry" />
        </mxCell>
        <mxCell id="Ph-aHH_Kv8CWVcv1lU_c-59" value="" style="rounded=0;whiteSpace=wrap;html=1;movable=1;resizable=1;rotatable=1;deletable=1;editable=1;locked=0;connectable=1;fillColor=#d0cee2;strokeColor=#56517e;" vertex="1" parent="1">
          <mxGeometry x="283" y="50" width="30" height="50" as="geometry" />
        </mxCell>
        <mxCell id="Ph-aHH_Kv8CWVcv1lU_c-60" value="" style="rounded=0;whiteSpace=wrap;html=1;movable=1;resizable=1;rotatable=1;deletable=1;editable=1;locked=0;connectable=1;fillColor=#dae8fc;strokeColor=#6c8ebf;" vertex="1" parent="1">
          <mxGeometry x="325.5" y="50" width="30" height="50" as="geometry" />
        </mxCell>
        <mxCell id="Ph-aHH_Kv8CWVcv1lU_c-61" value="" style="rounded=0;whiteSpace=wrap;html=1;movable=1;resizable=1;rotatable=1;deletable=1;editable=1;locked=0;connectable=1;fillColor=#b0e3e6;strokeColor=#0e8088;" vertex="1" parent="1">
          <mxGeometry x="355.5" y="50" width="30" height="50" as="geometry" />
        </mxCell>
        <mxCell id="Ph-aHH_Kv8CWVcv1lU_c-62" value="" style="rounded=0;whiteSpace=wrap;html=1;movable=1;resizable=1;rotatable=1;deletable=1;editable=1;locked=0;connectable=1;fillColor=#d0cee2;strokeColor=#56517e;" vertex="1" parent="1">
          <mxGeometry x="385.5" y="50" width="30" height="50" as="geometry" />
        </mxCell>
        <mxCell id="Ph-aHH_Kv8CWVcv1lU_c-63" value="" style="rounded=0;whiteSpace=wrap;html=1;movable=1;resizable=1;rotatable=1;deletable=1;editable=1;locked=0;connectable=1;fillColor=#dae8fc;strokeColor=#6c8ebf;" vertex="1" parent="1">
          <mxGeometry x="428" y="50" width="30" height="50" as="geometry" />
        </mxCell>
        <mxCell id="Ph-aHH_Kv8CWVcv1lU_c-64" value="" style="rounded=0;whiteSpace=wrap;html=1;movable=1;resizable=1;rotatable=1;deletable=1;editable=1;locked=0;connectable=1;fillColor=#b0e3e6;strokeColor=#0e8088;" vertex="1" parent="1">
          <mxGeometry x="458" y="50" width="30" height="50" as="geometry" />
        </mxCell>
        <mxCell id="Ph-aHH_Kv8CWVcv1lU_c-65" value="" style="rounded=0;whiteSpace=wrap;html=1;movable=1;resizable=1;rotatable=1;deletable=1;editable=1;locked=0;connectable=1;fillColor=#d0cee2;strokeColor=#56517e;" vertex="1" parent="1">
          <mxGeometry x="488" y="50" width="30" height="50" as="geometry" />
        </mxCell>
        <mxCell id="Ph-aHH_Kv8CWVcv1lU_c-66" value="" style="rounded=0;whiteSpace=wrap;html=1;movable=1;resizable=1;rotatable=1;deletable=1;editable=1;locked=0;connectable=1;fillColor=#dae8fc;strokeColor=#6c8ebf;" vertex="1" parent="1">
          <mxGeometry x="533" y="50" width="30" height="50" as="geometry" />
        </mxCell>
        <mxCell id="Ph-aHH_Kv8CWVcv1lU_c-67" value="" style="rounded=0;whiteSpace=wrap;html=1;movable=1;resizable=1;rotatable=1;deletable=1;editable=1;locked=0;connectable=1;fillColor=#b0e3e6;strokeColor=#0e8088;" vertex="1" parent="1">
          <mxGeometry x="563" y="50" width="30" height="50" as="geometry" />
        </mxCell>
        <mxCell id="Ph-aHH_Kv8CWVcv1lU_c-68" value="" style="rounded=0;whiteSpace=wrap;html=1;movable=1;resizable=1;rotatable=1;deletable=1;editable=1;locked=0;connectable=1;fillColor=#d0cee2;strokeColor=#56517e;" vertex="1" parent="1">
          <mxGeometry x="593" y="50" width="30" height="50" as="geometry" />
        </mxCell>
        <mxCell id="Ph-aHH_Kv8CWVcv1lU_c-69" value="" style="rounded=0;whiteSpace=wrap;html=1;movable=1;resizable=1;rotatable=1;deletable=1;editable=1;locked=0;connectable=1;fillColor=#dae8fc;strokeColor=#6c8ebf;" vertex="1" parent="1">
          <mxGeometry x="638" y="50" width="30" height="50" as="geometry" />
        </mxCell>
        <mxCell id="Ph-aHH_Kv8CWVcv1lU_c-70" value="" style="rounded=0;whiteSpace=wrap;html=1;movable=1;resizable=1;rotatable=1;deletable=1;editable=1;locked=0;connectable=1;fillColor=#b0e3e6;strokeColor=#0e8088;" vertex="1" parent="1">
          <mxGeometry x="668" y="50" width="30" height="50" as="geometry" />
        </mxCell>
        <mxCell id="Ph-aHH_Kv8CWVcv1lU_c-71" value="" style="rounded=0;whiteSpace=wrap;html=1;movable=1;resizable=1;rotatable=1;deletable=1;editable=1;locked=0;connectable=1;fillColor=#d0cee2;strokeColor=#56517e;" vertex="1" parent="1">
          <mxGeometry x="698" y="50" width="30" height="50" as="geometry" />
        </mxCell>
        <mxCell id="Ph-aHH_Kv8CWVcv1lU_c-72" value="" style="rounded=0;whiteSpace=wrap;html=1;movable=1;resizable=1;rotatable=1;deletable=1;editable=1;locked=0;connectable=1;fillColor=#dae8fc;strokeColor=#6c8ebf;" vertex="1" parent="1">
          <mxGeometry x="738" y="50" width="30" height="50" as="geometry" />
        </mxCell>
        <mxCell id="Ph-aHH_Kv8CWVcv1lU_c-73" value="" style="rounded=0;whiteSpace=wrap;html=1;movable=1;resizable=1;rotatable=1;deletable=1;editable=1;locked=0;connectable=1;fillColor=#b0e3e6;strokeColor=#0e8088;" vertex="1" parent="1">
          <mxGeometry x="768" y="50" width="30" height="50" as="geometry" />
        </mxCell>
        <mxCell id="Ph-aHH_Kv8CWVcv1lU_c-74" value="" style="shape=image;html=1;verticalAlign=top;verticalLabelPosition=bottom;labelBackgroundColor=#ffffff;imageAspect=0;aspect=fixed;image=https://cdn4.iconfinder.com/data/icons/essential-app-1/16/dot-more-menu-hide-128.png" vertex="1" parent="1">
          <mxGeometry x="836" y="95" width="10" height="10" as="geometry" />
        </mxCell>
        <mxCell id="Ph-aHH_Kv8CWVcv1lU_c-75" value="" style="shape=curlyBracket;whiteSpace=wrap;html=1;rounded=1;flipH=1;labelPosition=right;verticalLabelPosition=middle;align=left;verticalAlign=middle;size=0.5;rotation=90;fontStyle=1" vertex="1" parent="1">
          <mxGeometry x="614.69" y="-60.31" width="30" height="400.63" as="geometry" />
        </mxCell>
        <mxCell id="Ph-aHH_Kv8CWVcv1lU_c-76" value="&lt;div&gt;$$x_1$$&lt;/div&gt;" style="text;html=1;align=center;verticalAlign=middle;resizable=0;points=[];autosize=1;strokeColor=none;fillColor=none;" vertex="1" parent="1">
          <mxGeometry x="3" y="60" width="70" height="30" as="geometry" />
        </mxCell>
        <mxCell id="Ph-aHH_Kv8CWVcv1lU_c-77" value="&lt;div&gt;$$z_1$$&lt;/div&gt;" style="text;html=1;align=center;verticalAlign=middle;resizable=0;points=[];autosize=1;strokeColor=none;fillColor=none;" vertex="1" parent="1">
          <mxGeometry x="63" y="60" width="70" height="30" as="geometry" />
        </mxCell>
        <mxCell id="Ph-aHH_Kv8CWVcv1lU_c-78" value="&lt;div&gt;$$y_1$$&lt;/div&gt;" style="text;html=1;align=center;verticalAlign=middle;resizable=0;points=[];autosize=1;strokeColor=none;fillColor=none;" vertex="1" parent="1">
          <mxGeometry x="33" y="60" width="70" height="30" as="geometry" />
        </mxCell>
        <mxCell id="Ph-aHH_Kv8CWVcv1lU_c-79" value="&lt;div&gt;$$x_3$$&lt;/div&gt;" style="text;html=1;align=center;verticalAlign=middle;resizable=0;points=[];autosize=1;strokeColor=none;fillColor=none;" vertex="1" parent="1">
          <mxGeometry x="203" y="60" width="70" height="30" as="geometry" />
        </mxCell>
        <mxCell id="Ph-aHH_Kv8CWVcv1lU_c-80" value="&lt;div&gt;$$x_4$$&lt;/div&gt;" style="text;html=1;align=center;verticalAlign=middle;resizable=0;points=[];autosize=1;strokeColor=none;fillColor=none;" vertex="1" parent="1">
          <mxGeometry x="305.5" y="60" width="70" height="30" as="geometry" />
        </mxCell>
        <mxCell id="Ph-aHH_Kv8CWVcv1lU_c-81" value="&lt;div&gt;$$x_5$$&lt;/div&gt;" style="text;html=1;align=center;verticalAlign=middle;resizable=0;points=[];autosize=1;strokeColor=none;fillColor=none;" vertex="1" parent="1">
          <mxGeometry x="408" y="60" width="70" height="30" as="geometry" />
        </mxCell>
        <mxCell id="Ph-aHH_Kv8CWVcv1lU_c-82" value="&lt;div&gt;$$x_6$$&lt;/div&gt;" style="text;html=1;align=center;verticalAlign=middle;resizable=0;points=[];autosize=1;strokeColor=none;fillColor=none;" vertex="1" parent="1">
          <mxGeometry x="510" y="60" width="70" height="30" as="geometry" />
        </mxCell>
        <mxCell id="Ph-aHH_Kv8CWVcv1lU_c-83" value="&lt;div&gt;$$x_7$$&lt;/div&gt;" style="text;html=1;align=center;verticalAlign=middle;resizable=0;points=[];autosize=1;strokeColor=none;fillColor=none;" vertex="1" parent="1">
          <mxGeometry x="615" y="60" width="70" height="30" as="geometry" />
        </mxCell>
        <mxCell id="Ph-aHH_Kv8CWVcv1lU_c-84" value="&lt;div&gt;$$x_8$$&lt;/div&gt;" style="text;html=1;align=center;verticalAlign=middle;resizable=0;points=[];autosize=1;strokeColor=none;fillColor=none;" vertex="1" parent="1">
          <mxGeometry x="718" y="60" width="70" height="30" as="geometry" />
        </mxCell>
        <mxCell id="Ph-aHH_Kv8CWVcv1lU_c-85" value="&lt;div&gt;$$y_2$$&lt;/div&gt;" style="text;html=1;align=center;verticalAlign=middle;resizable=0;points=[];autosize=1;strokeColor=none;fillColor=none;" vertex="1" parent="1">
          <mxGeometry x="133" y="60" width="70" height="30" as="geometry" />
        </mxCell>
        <mxCell id="Ph-aHH_Kv8CWVcv1lU_c-86" value="&lt;div&gt;$$y_3$$&lt;/div&gt;" style="text;html=1;align=center;verticalAlign=middle;resizable=0;points=[];autosize=1;strokeColor=none;fillColor=none;" vertex="1" parent="1">
          <mxGeometry x="235" y="60" width="70" height="30" as="geometry" />
        </mxCell>
        <mxCell id="Ph-aHH_Kv8CWVcv1lU_c-87" value="&lt;div&gt;$$y_4$$&lt;/div&gt;" style="text;html=1;align=center;verticalAlign=middle;resizable=0;points=[];autosize=1;strokeColor=none;fillColor=none;" vertex="1" parent="1">
          <mxGeometry x="337.5" y="60" width="70" height="30" as="geometry" />
        </mxCell>
        <mxCell id="Ph-aHH_Kv8CWVcv1lU_c-88" value="&lt;div&gt;$$y_5$$&lt;/div&gt;" style="text;html=1;align=center;verticalAlign=middle;resizable=0;points=[];autosize=1;strokeColor=none;fillColor=none;" vertex="1" parent="1">
          <mxGeometry x="438" y="60" width="70" height="30" as="geometry" />
        </mxCell>
        <mxCell id="Ph-aHH_Kv8CWVcv1lU_c-89" value="&lt;div&gt;$$y_6$$&lt;/div&gt;" style="text;html=1;align=center;verticalAlign=middle;resizable=0;points=[];autosize=1;strokeColor=none;fillColor=none;" vertex="1" parent="1">
          <mxGeometry x="545" y="60" width="70" height="30" as="geometry" />
        </mxCell>
        <mxCell id="Ph-aHH_Kv8CWVcv1lU_c-90" value="&lt;div&gt;$$y_7$$&lt;/div&gt;" style="text;html=1;align=center;verticalAlign=middle;resizable=0;points=[];autosize=1;strokeColor=none;fillColor=none;" vertex="1" parent="1">
          <mxGeometry x="648" y="60" width="70" height="30" as="geometry" />
        </mxCell>
        <mxCell id="Ph-aHH_Kv8CWVcv1lU_c-91" value="&lt;div&gt;$$y_8$$&lt;/div&gt;" style="text;html=1;align=center;verticalAlign=middle;resizable=0;points=[];autosize=1;strokeColor=none;fillColor=none;" vertex="1" parent="1">
          <mxGeometry x="750" y="60" width="70" height="30" as="geometry" />
        </mxCell>
        <mxCell id="Ph-aHH_Kv8CWVcv1lU_c-92" value="&lt;div&gt;$$z_2$$&lt;/div&gt;" style="text;html=1;align=center;verticalAlign=middle;resizable=0;points=[];autosize=1;strokeColor=none;fillColor=none;" vertex="1" parent="1">
          <mxGeometry x="160" y="60" width="70" height="30" as="geometry" />
        </mxCell>
        <mxCell id="Ph-aHH_Kv8CWVcv1lU_c-93" value="&lt;div&gt;$$z_3$$&lt;/div&gt;" style="text;html=1;align=center;verticalAlign=middle;resizable=0;points=[];autosize=1;strokeColor=none;fillColor=none;" vertex="1" parent="1">
          <mxGeometry x="263" y="60" width="70" height="30" as="geometry" />
        </mxCell>
        <mxCell id="Ph-aHH_Kv8CWVcv1lU_c-94" value="&lt;div&gt;$$z_4$$&lt;/div&gt;" style="text;html=1;align=center;verticalAlign=middle;resizable=0;points=[];autosize=1;strokeColor=none;fillColor=none;" vertex="1" parent="1">
          <mxGeometry x="362.5" y="60" width="70" height="30" as="geometry" />
        </mxCell>
        <mxCell id="Ph-aHH_Kv8CWVcv1lU_c-95" value="&lt;div&gt;$$z_5$$&lt;/div&gt;" style="text;html=1;align=center;verticalAlign=middle;resizable=0;points=[];autosize=1;strokeColor=none;fillColor=none;" vertex="1" parent="1">
          <mxGeometry x="468" y="60" width="70" height="30" as="geometry" />
        </mxCell>
        <mxCell id="Ph-aHH_Kv8CWVcv1lU_c-96" value="&lt;div&gt;$$z_6$$&lt;/div&gt;" style="text;html=1;align=center;verticalAlign=middle;resizable=0;points=[];autosize=1;strokeColor=none;fillColor=none;" vertex="1" parent="1">
          <mxGeometry x="573" y="60" width="70" height="30" as="geometry" />
        </mxCell>
        <mxCell id="Ph-aHH_Kv8CWVcv1lU_c-97" value="&lt;div&gt;$$z_7$$&lt;/div&gt;" style="text;html=1;align=center;verticalAlign=middle;resizable=0;points=[];autosize=1;strokeColor=none;fillColor=none;" vertex="1" parent="1">
          <mxGeometry x="680" y="60" width="70" height="30" as="geometry" />
        </mxCell>
        <mxCell id="Ph-aHH_Kv8CWVcv1lU_c-98" value="&lt;div&gt;$$z_8$$&lt;/div&gt;" style="text;html=1;align=center;verticalAlign=middle;resizable=0;points=[];autosize=1;strokeColor=none;fillColor=none;" vertex="1" parent="1">
          <mxGeometry x="776" y="60" width="70" height="30" as="geometry" />
        </mxCell>
        <mxCell id="Ph-aHH_Kv8CWVcv1lU_c-99" value="" style="shape=curlyBracket;whiteSpace=wrap;html=1;rounded=1;flipH=0;labelPosition=right;verticalLabelPosition=middle;align=left;verticalAlign=middle;size=0.5;rotation=90;fontStyle=1;flipV=0;" vertex="1" parent="1">
          <mxGeometry x="48.32" y="-29.38" width="34.63" height="90" as="geometry" />
        </mxCell>
        <mxCell id="Ph-aHH_Kv8CWVcv1lU_c-100" value="" style="shape=curlyBracket;whiteSpace=wrap;html=1;rounded=1;flipH=0;labelPosition=right;verticalLabelPosition=middle;align=left;verticalAlign=middle;size=0.5;rotation=90;fontStyle=1;flipV=0;" vertex="1" parent="1">
          <mxGeometry x="149.07" y="-30.93" width="34.63" height="90.62" as="geometry" />
        </mxCell>
        <mxCell id="Ph-aHH_Kv8CWVcv1lU_c-101" value="" style="shape=curlyBracket;whiteSpace=wrap;html=1;rounded=1;flipH=0;labelPosition=right;verticalLabelPosition=middle;align=left;verticalAlign=middle;size=0.5;rotation=90;fontStyle=1;flipV=0;" vertex="1" parent="1">
          <mxGeometry x="249.74" y="-30.94" width="34.63" height="90.63" as="geometry" />
        </mxCell>
        <mxCell id="Ph-aHH_Kv8CWVcv1lU_c-102" value="" style="shape=curlyBracket;whiteSpace=wrap;html=1;rounded=1;flipH=0;labelPosition=right;verticalLabelPosition=middle;align=left;verticalAlign=middle;size=0.5;rotation=90;fontStyle=1;flipV=0;" vertex="1" parent="1">
          <mxGeometry x="457.68" y="-25.630000000000003" width="34.63" height="80" as="geometry" />
        </mxCell>
        <mxCell id="Ph-aHH_Kv8CWVcv1lU_c-103" value="&lt;div style=&quot;font-size: 14px;&quot;&gt;$$A_1$$&lt;/div&gt;" style="text;html=1;align=center;verticalAlign=middle;resizable=0;points=[];autosize=1;strokeColor=none;fillColor=none;fontColor=#000000;fontSize=14;" vertex="1" parent="1">
          <mxGeometry x="28" y="-31.25" width="80" height="30" as="geometry" />
        </mxCell>
        <mxCell id="Ph-aHH_Kv8CWVcv1lU_c-104" value="&lt;div style=&quot;font-size: 14px;&quot;&gt;$$B_1$$&lt;/div&gt;" style="text;html=1;align=center;verticalAlign=middle;resizable=0;points=[];autosize=1;strokeColor=none;fillColor=none;fontColor=#000000;fontSize=14;" vertex="1" parent="1">
          <mxGeometry x="126.75" y="-31.25" width="80" height="30" as="geometry" />
        </mxCell>
        <mxCell id="Ph-aHH_Kv8CWVcv1lU_c-105" value="&lt;div style=&quot;font-size: 14px;&quot;&gt;$$C_1$$&lt;/div&gt;" style="text;html=1;align=center;verticalAlign=middle;resizable=0;points=[];autosize=1;strokeColor=none;fillColor=none;fontColor=#000000;fontSize=14;" vertex="1" parent="1">
          <mxGeometry x="228" y="-31.25" width="80" height="30" as="geometry" />
        </mxCell>
        <mxCell id="Ph-aHH_Kv8CWVcv1lU_c-106" value="&lt;div style=&quot;font-size: 14px;&quot;&gt;$$D_1$$&lt;/div&gt;" style="text;html=1;align=center;verticalAlign=middle;resizable=0;points=[];autosize=1;strokeColor=none;fillColor=none;fontColor=#000000;fontSize=14;" vertex="1" parent="1">
          <mxGeometry x="330.5" y="-31.25" width="80" height="30" as="geometry" />
        </mxCell>
        <mxCell id="Ph-aHH_Kv8CWVcv1lU_c-107" value="" style="shape=curlyBracket;whiteSpace=wrap;html=1;rounded=1;flipH=0;labelPosition=right;verticalLabelPosition=middle;align=left;verticalAlign=middle;size=0.5;rotation=90;fontStyle=1;flipV=0;" vertex="1" parent="1">
          <mxGeometry x="352.69" y="-25" width="34.63" height="81.25" as="geometry" />
        </mxCell>
        <mxCell id="Ph-aHH_Kv8CWVcv1lU_c-110" value="&lt;div style=&quot;font-size: 14px;&quot;&gt;$$A_2$$&lt;/div&gt;" style="text;html=1;align=center;verticalAlign=middle;resizable=0;points=[];autosize=1;strokeColor=none;fillColor=none;fontColor=#000000;fontSize=14;" vertex="1" parent="1">
          <mxGeometry x="435" y="-31.25" width="80" height="30" as="geometry" />
        </mxCell>
        <mxCell id="Ph-aHH_Kv8CWVcv1lU_c-111" value="&lt;div style=&quot;font-size: 14px;&quot;&gt;$$x_i, y_i, z_1 - coordinates$$&lt;/div&gt;" style="text;html=1;align=center;verticalAlign=middle;resizable=0;points=[];autosize=1;strokeColor=none;fillColor=none;fontSize=14;" vertex="1" parent="1">
          <mxGeometry x="303" y="280" width="210" height="30" as="geometry" />
        </mxCell>
        <mxCell id="Ph-aHH_Kv8CWVcv1lU_c-112" value="&lt;div style=&quot;font-size: 14px;&quot;&gt;$$A_i, B_i, C_i, D_i - points$$&lt;/div&gt;" style="text;html=1;align=center;verticalAlign=middle;resizable=0;points=[];autosize=1;strokeColor=none;fillColor=none;fontSize=14;" vertex="1" parent="1">
          <mxGeometry x="300" y="257.5" width="210" height="30" as="geometry" />
        </mxCell>
        <mxCell id="Ph-aHH_Kv8CWVcv1lU_c-113" value="" style="rounded=0;whiteSpace=wrap;html=1;fillColor=#fff2cc;strokeColor=#d6b656;" vertex="1" parent="1">
          <mxGeometry x="10" y="401.25" width="710" height="70" as="geometry" />
        </mxCell>
        <mxCell id="Ph-aHH_Kv8CWVcv1lU_c-114" value="" style="rounded=0;whiteSpace=wrap;html=1;movable=1;resizable=1;rotatable=1;deletable=1;editable=1;locked=0;connectable=1;fillColor=#e1d5e7;strokeColor=#9673a6;" vertex="1" parent="1">
          <mxGeometry x="33" y="411.25" width="50" height="50" as="geometry" />
        </mxCell>
        <mxCell id="Ph-aHH_Kv8CWVcv1lU_c-115" value="" style="rounded=0;whiteSpace=wrap;html=1;movable=1;resizable=1;rotatable=1;deletable=1;editable=1;locked=0;connectable=1;fillColor=#e1d5e7;strokeColor=#9673a6;" vertex="1" parent="1">
          <mxGeometry x="93" y="411.25" width="50" height="50" as="geometry" />
        </mxCell>
        <mxCell id="Ph-aHH_Kv8CWVcv1lU_c-116" value="" style="rounded=0;whiteSpace=wrap;html=1;movable=1;resizable=1;rotatable=1;deletable=1;editable=1;locked=0;connectable=1;fillColor=#e1d5e7;strokeColor=#9673a6;" vertex="1" parent="1">
          <mxGeometry x="153" y="411.25" width="50" height="50" as="geometry" />
        </mxCell>
        <mxCell id="Ph-aHH_Kv8CWVcv1lU_c-117" value="" style="rounded=0;whiteSpace=wrap;html=1;movable=1;resizable=1;rotatable=1;deletable=1;editable=1;locked=0;connectable=1;fillColor=#e1d5e7;strokeColor=#9673a6;" vertex="1" parent="1">
          <mxGeometry x="213" y="411.25" width="50" height="50" as="geometry" />
        </mxCell>
        <mxCell id="Ph-aHH_Kv8CWVcv1lU_c-118" value="" style="rounded=0;whiteSpace=wrap;html=1;movable=1;resizable=1;rotatable=1;deletable=1;editable=1;locked=0;connectable=1;fillColor=#e1d5e7;strokeColor=#9673a6;" vertex="1" parent="1">
          <mxGeometry x="273" y="411.25" width="50" height="50" as="geometry" />
        </mxCell>
        <mxCell id="Ph-aHH_Kv8CWVcv1lU_c-119" value="" style="rounded=0;whiteSpace=wrap;html=1;movable=1;resizable=1;rotatable=1;deletable=1;editable=1;locked=0;connectable=1;fillColor=#e1d5e7;strokeColor=#9673a6;" vertex="1" parent="1">
          <mxGeometry x="330.5" y="411.25" width="50" height="50" as="geometry" />
        </mxCell>
        <mxCell id="Ph-aHH_Kv8CWVcv1lU_c-120" value="" style="rounded=0;whiteSpace=wrap;html=1;movable=1;resizable=1;rotatable=1;deletable=1;editable=1;locked=0;connectable=1;fillColor=#e1d5e7;strokeColor=#9673a6;" vertex="1" parent="1">
          <mxGeometry x="393" y="411.25" width="50" height="50" as="geometry" />
        </mxCell>
        <mxCell id="Ph-aHH_Kv8CWVcv1lU_c-121" value="" style="rounded=0;whiteSpace=wrap;html=1;movable=1;resizable=1;rotatable=1;deletable=1;editable=1;locked=0;connectable=1;fillColor=#e1d5e7;strokeColor=#9673a6;" vertex="1" parent="1">
          <mxGeometry x="453" y="411.25" width="50" height="50" as="geometry" />
        </mxCell>
        <mxCell id="Ph-aHH_Kv8CWVcv1lU_c-122" value="" style="rounded=0;whiteSpace=wrap;html=1;movable=1;resizable=1;rotatable=1;deletable=1;editable=1;locked=0;connectable=1;fillColor=#e1d5e7;strokeColor=#9673a6;" vertex="1" parent="1">
          <mxGeometry x="513" y="411.25" width="50" height="50" as="geometry" />
        </mxCell>
        <mxCell id="Ph-aHH_Kv8CWVcv1lU_c-123" value="" style="rounded=0;whiteSpace=wrap;html=1;movable=1;resizable=1;rotatable=1;deletable=1;editable=1;locked=0;connectable=1;fillColor=#e1d5e7;strokeColor=#9673a6;" vertex="1" parent="1">
          <mxGeometry x="573" y="411.25" width="50" height="50" as="geometry" />
        </mxCell>
        <mxCell id="Ph-aHH_Kv8CWVcv1lU_c-124" value="" style="rounded=0;whiteSpace=wrap;html=1;movable=1;resizable=1;rotatable=1;deletable=1;editable=1;locked=0;connectable=1;fillColor=#e1d5e7;strokeColor=#9673a6;" vertex="1" parent="1">
          <mxGeometry x="633" y="411.25" width="50" height="50" as="geometry" />
        </mxCell>
        <mxCell id="Ph-aHH_Kv8CWVcv1lU_c-125" value="&lt;div&gt;$$p_1$$&lt;/div&gt;" style="text;html=1;align=center;verticalAlign=middle;resizable=0;points=[];autosize=1;strokeColor=none;fillColor=none;" vertex="1" parent="1">
          <mxGeometry x="23" y="421.25" width="70" height="30" as="geometry" />
        </mxCell>
        <mxCell id="Ph-aHH_Kv8CWVcv1lU_c-126" value="" style="shape=image;html=1;verticalAlign=top;verticalLabelPosition=bottom;labelBackgroundColor=#ffffff;imageAspect=0;aspect=fixed;image=https://cdn4.iconfinder.com/data/icons/essential-app-1/16/dot-more-menu-hide-128.png" vertex="1" parent="1">
          <mxGeometry x="693" y="446.25" width="15" height="15" as="geometry" />
        </mxCell>
        <mxCell id="Ph-aHH_Kv8CWVcv1lU_c-127" value="&lt;div&gt;$$p_2$$&lt;/div&gt;" style="text;html=1;align=center;verticalAlign=middle;resizable=0;points=[];autosize=1;strokeColor=none;fillColor=none;" vertex="1" parent="1">
          <mxGeometry x="83" y="421.25" width="70" height="30" as="geometry" />
        </mxCell>
        <mxCell id="Ph-aHH_Kv8CWVcv1lU_c-128" value="&lt;div&gt;$$p_3$$&lt;/div&gt;" style="text;html=1;align=center;verticalAlign=middle;resizable=0;points=[];autosize=1;strokeColor=none;fillColor=none;" vertex="1" parent="1">
          <mxGeometry x="143" y="421.25" width="70" height="30" as="geometry" />
        </mxCell>
        <mxCell id="Ph-aHH_Kv8CWVcv1lU_c-129" value="&lt;div&gt;$$p_4$$&lt;/div&gt;" style="text;html=1;align=center;verticalAlign=middle;resizable=0;points=[];autosize=1;strokeColor=none;fillColor=none;" vertex="1" parent="1">
          <mxGeometry x="205.5" y="421.25" width="70" height="30" as="geometry" />
        </mxCell>
        <mxCell id="Ph-aHH_Kv8CWVcv1lU_c-130" value="&lt;div&gt;$$p_5$$&lt;/div&gt;" style="text;html=1;align=center;verticalAlign=middle;resizable=0;points=[];autosize=1;strokeColor=none;fillColor=none;" vertex="1" parent="1">
          <mxGeometry x="260.5" y="421.25" width="70" height="30" as="geometry" />
        </mxCell>
        <mxCell id="Ph-aHH_Kv8CWVcv1lU_c-131" value="&lt;div&gt;$$p_6$$&lt;/div&gt;" style="text;html=1;align=center;verticalAlign=middle;resizable=0;points=[];autosize=1;strokeColor=none;fillColor=none;" vertex="1" parent="1">
          <mxGeometry x="318" y="421.25" width="70" height="30" as="geometry" />
        </mxCell>
        <mxCell id="Ph-aHH_Kv8CWVcv1lU_c-132" value="&lt;div&gt;$$p_7$$&lt;/div&gt;" style="text;html=1;align=center;verticalAlign=middle;resizable=0;points=[];autosize=1;strokeColor=none;fillColor=none;" vertex="1" parent="1">
          <mxGeometry x="383" y="421.25" width="70" height="30" as="geometry" />
        </mxCell>
        <mxCell id="Ph-aHH_Kv8CWVcv1lU_c-133" value="&lt;div&gt;$$p_8$$&lt;/div&gt;" style="text;html=1;align=center;verticalAlign=middle;resizable=0;points=[];autosize=1;strokeColor=none;fillColor=none;" vertex="1" parent="1">
          <mxGeometry x="443" y="421.25" width="70" height="30" as="geometry" />
        </mxCell>
        <mxCell id="Ph-aHH_Kv8CWVcv1lU_c-134" value="&lt;div&gt;$$p_9$$&lt;/div&gt;" style="text;html=1;align=center;verticalAlign=middle;resizable=0;points=[];autosize=1;strokeColor=none;fillColor=none;" vertex="1" parent="1">
          <mxGeometry x="503" y="421.25" width="70" height="30" as="geometry" />
        </mxCell>
        <mxCell id="Ph-aHH_Kv8CWVcv1lU_c-135" value="&lt;div&gt;$$p_{10}$$&lt;/div&gt;" style="text;html=1;align=center;verticalAlign=middle;resizable=0;points=[];autosize=1;strokeColor=none;fillColor=none;" vertex="1" parent="1">
          <mxGeometry x="558" y="421.25" width="80" height="30" as="geometry" />
        </mxCell>
        <mxCell id="Ph-aHH_Kv8CWVcv1lU_c-136" value="&lt;div&gt;$$p_{11}$$&lt;/div&gt;" style="text;html=1;align=center;verticalAlign=middle;resizable=0;points=[];autosize=1;strokeColor=none;fillColor=none;" vertex="1" parent="1">
          <mxGeometry x="618" y="421.25" width="80" height="30" as="geometry" />
        </mxCell>
        <mxCell id="Ph-aHH_Kv8CWVcv1lU_c-137" value="&lt;div style=&quot;font-size: 14px;&quot;&gt;&lt;font style=&quot;font-size: 14px;&quot;&gt;$$i= 1, \dots M$$&lt;/font&gt;&lt;/div&gt;" style="text;html=1;align=center;verticalAlign=middle;resizable=0;points=[];autosize=1;strokeColor=none;fillColor=none;fontColor=#33001A;fontSize=14;" vertex="1" parent="1">
          <mxGeometry x="609" y="550" width="130" height="30" as="geometry" />
        </mxCell>
        <mxCell id="Ph-aHH_Kv8CWVcv1lU_c-138" value="$$K = number \, of \,sails$$" style="text;html=1;align=center;verticalAlign=middle;resizable=0;points=[];autosize=1;strokeColor=none;fillColor=none;fontColor=#33001A;fontSize=14;" vertex="1" parent="1">
          <mxGeometry x="559" y="490" width="190" height="30" as="geometry" />
        </mxCell>
        <mxCell id="Ph-aHH_Kv8CWVcv1lU_c-139" value="&lt;div style=&quot;font-size: 25px;&quot;&gt;&lt;font style=&quot;font-size: 25px;&quot;&gt;$$SoA$$&lt;/font&gt;&lt;/div&gt;" style="text;html=1;align=center;verticalAlign=middle;resizable=0;points=[];autosize=1;strokeColor=none;fillColor=none;" vertex="1" parent="1">
          <mxGeometry x="-180" y="411.25" width="130" height="40" as="geometry" />
        </mxCell>
        <mxCell id="Ph-aHH_Kv8CWVcv1lU_c-140" value="&lt;div style=&quot;font-size: 25px;&quot;&gt;$$AoS$$&lt;/div&gt;" style="text;html=1;align=center;verticalAlign=middle;resizable=0;points=[];autosize=1;strokeColor=none;fillColor=none;fontSize=25;" vertex="1" parent="1">
          <mxGeometry x="-180" y="55" width="130" height="40" as="geometry" />
        </mxCell>
      </root>
    </mxGraphModel>
  </diagram>
</mxfile>
